#N canvas 495 230 807 413 10;
#X declare -path ./SyncJams/pure-data/;
#X declare -path ./pd-acid-core/;
#X declare -path .;
#X declare -path ./pd-acid-core/common/;
#X declare -path ./pd-acid-core/rjlib/rj;
#X declare -path ./pd-acid-core/blockhead/;
#X declare -path .;
#X declare -path ./common/;
#X declare -path ./blockhead/;
#X declare -path ./rjlib/rj;
#X obj 24 381 dac~;
#X obj 406 8 loadbang;
#X msg 406 30 \; pd dsp 1 \;;
#X obj 130 385 writesf~ 2;
#X obj 130 296 r record;
#X msg 139 360 stop;
#X obj 139 339 r stop;
#X obj 550 320 s acid/tick;
#X obj 217 4 r wordbutton-new_acid;
#N canvas 5 50 450 300 delay 0;
#X obj 14 11 inlet~;
#X obj 14 272 outlet~;
#X obj 41 171 +~;
#X obj 76 143 *~ 0;
#X obj 76 10 loadbang;
#X msg 76 31 0;
#X obj 41 241 delwrite~ \$0/del 857.143;
#X obj 97 119 r delay/feedback;
#X obj 219 30 mtof;
#X obj 219 8 r delay/length;
#X obj 76 82 vd~ \$0/del;
#X connect 0 0 2 0;
#X connect 2 0 1 0;
#X connect 2 0 6 0;
#X connect 3 0 2 1;
#X connect 4 0 5 0;
#X connect 5 0 10 0;
#X connect 7 0 3 1;
#X connect 8 0 10 0;
#X connect 9 0 8 0;
#X connect 10 0 3 0;
#X restore 7 251 pd delay;
#X floatatom 217 185 10 0 0 0 - - -, f 10;
#X obj 578 5 declare -path ./SyncJams/pure-data/;
#X obj 614 28 declare -path ./pd-acid-core/;
#X obj 699 50 declare -path .;
#X obj 574 73 declare -path ./pd-acid-core/common/;
#X obj 568 96 declare -path ./pd-acid-core/rjlib/rj;
#X obj 556 118 declare -path ./pd-acid-core/blockhead/;
#X obj 19 286 e_autocompress;
#X obj 62 340 e_tanh;
#X obj 8 340 e_tanh;
#X msg 217 203 \; acid/seed \$1 \; acid/makenew bang \;;
#X obj 7 149 acid-core acid;
#X obj 7 189 catch~ acid/out;
#X obj 550 278 int;
#X obj 550 300 change;
#X obj 383 256 r bpm;
#X obj 683 364 s bpm_r;
#X obj 550 212 syncjams \$0/syncjam;
#X msg 383 280 set-state /BPM \$1;
#X msg 130 317 open recording.wav \, start;
#X obj 383 302 s \$0/syncjam;
#X obj 7 230 e_foldover;
#X obj 64 209 r distortion;
#X obj 550 234 route sub-tick state node-id;
#X obj 605 256 route -1;
#X obj 19 308 *~ 0.1;
#X obj 217 163 r ACID-SEED;
#X obj 550 256 / 6;
#X obj 383 233 s acid/globaloctave;
#X obj 383 213 - 2;
#X obj 383 189 r acid/set-octave;
#X obj 217 141 s ACID-SEED/r;
#X obj 217 119 random 65536;
#N canvas 664 1293 450 452 magic 0;
#X obj 116 366 u_magic-freq;
#X obj 116 282 r delay/tune;
#X obj 131 310 r bpm;
#X obj 185 390 s delay/length;
#X obj 305 120 list;
#X obj 258 312 list prepend notes;
#X obj 326 97 list split 1;
#X obj 305 142 list split 1;
#X obj 395 142 t l;
#X obj 279 263 list append;
#X obj 355 263 t l;
#X obj 299 51 t b f b;
#X obj 258 289 list;
#X obj 258 334 list trim;
#X obj 272 31 t b f;
#X obj 272 9 r acid/rootnote;
#X obj 326 75 r acid/notes;
#X obj 305 192 + 0;
#X obj 305 164 sel 0;
#X obj 305 214 mod 12;
#X obj 305 236 + 52;
#X msg 131 332 bpm \$1;
#X connect 0 1 3 0;
#X connect 1 0 0 0;
#X connect 2 0 21 0;
#X connect 4 0 7 0;
#X connect 5 0 13 0;
#X connect 6 1 4 1;
#X connect 7 0 18 0;
#X connect 7 1 8 0;
#X connect 8 0 7 0;
#X connect 9 0 10 0;
#X connect 9 0 12 1;
#X connect 10 0 9 1;
#X connect 11 0 4 0;
#X connect 11 1 17 1;
#X connect 11 2 9 1;
#X connect 12 0 5 0;
#X connect 13 0 0 0;
#X connect 14 0 12 0;
#X connect 14 1 11 0;
#X connect 15 0 14 0;
#X connect 16 0 6 0;
#X connect 17 0 19 0;
#X connect 18 1 17 0;
#X connect 19 0 20 0;
#X connect 20 0 9 0;
#X connect 21 0 0 0;
#X restore 63 251 pd magic;
#X floatatom 7 168 5 0 0 0 - - -, f 5;
#N canvas 1138 158 450 300 table-match 0;
#X obj 27 38 u_tablemap 16 \$1/slide/r/%d \$1/slide/%d acid/slide acid/slide
;
#X obj 27 73 u_tablemap 16 \$1/accent/r/%d \$1/accent/%d acid/octave
acid/octave;
#X obj 27 109 u_tablemap 16 \$1/note/r/%d \$1/note/%d/idx acid/sequence
acid/sequence;
#X obj 27 144 u_tablemap 16 \$1/octave/r/%d \$1/octave/%d/idx acid/octave
acid/octave;
#X restore 382 375 pd table-match;
#X obj 383 352 s acid/wave;
#X obj 383 330 r acid/wave/name/idx;
#X obj 286 30 loadbang;
#X msg 286 93 seed \$1;
#X obj 286 51 u_uid;
#X obj 286 72 mod 65536;
#N canvas 651 501 450 386 puck 0;
#X obj 22 353 s \$1/puck;
#X obj 22 308 list prepend pos;
#X obj 22 11 r acid/tick;
#X obj 22 330 list trim;
#X obj 22 123 mod 16;
#X obj 22 145 t f f;
#X obj 54 174 / 4;
#X obj 54 196 int;
#X obj 22 263 +;
#X msg 22 285 \$1 305;
#X obj 54 240 + 13;
#X obj 22 174 * 22;
#X obj 54 218 * 19;
#X obj 22 57 / 1;
#X obj 37 35 r acid/speed;
#X obj 22 79 int;
#X obj 22 101 change;
#X connect 1 0 3 0;
#X connect 2 0 13 0;
#X connect 3 0 0 0;
#X connect 4 0 5 0;
#X connect 5 0 11 0;
#X connect 5 1 6 0;
#X connect 6 0 7 0;
#X connect 7 0 12 0;
#X connect 8 0 9 0;
#X connect 9 0 1 0;
#X connect 10 0 8 1;
#X connect 11 0 8 0;
#X connect 12 0 10 0;
#X connect 13 0 15 0;
#X connect 14 0 13 1;
#X connect 15 0 16 0;
#X connect 16 0 4 0;
#X restore 579 174 pd puck;
#X obj 383 122 r acid/speed/set;
#X obj 383 144 + 1;
#X obj 383 166 s acid/speed;
#X obj 649 276 list split 1;
#X obj 683 297 route /BPM;
#X obj 683 319 list prepend set;
#X obj 683 341 list trim;
#X connect 1 0 2 0;
#X connect 4 0 29 0;
#X connect 5 0 3 0;
#X connect 6 0 5 0;
#X connect 8 0 42 0;
#X connect 9 0 17 0;
#X connect 9 0 19 0;
#X connect 9 0 18 0;
#X connect 10 0 20 0;
#X connect 17 0 35 0;
#X connect 18 0 0 1;
#X connect 18 0 3 1;
#X connect 19 0 0 0;
#X connect 19 0 3 0;
#X connect 21 0 44 0;
#X connect 22 0 31 0;
#X connect 23 0 24 0;
#X connect 24 0 7 0;
#X connect 25 0 28 0;
#X connect 27 0 33 0;
#X connect 28 0 30 0;
#X connect 29 0 3 0;
#X connect 31 0 9 0;
#X connect 32 0 31 1;
#X connect 33 0 37 0;
#X connect 33 1 34 0;
#X connect 33 2 34 1;
#X connect 35 0 19 0;
#X connect 35 0 18 0;
#X connect 36 0 10 0;
#X connect 37 0 23 0;
#X connect 39 0 38 0;
#X connect 40 0 39 0;
#X connect 42 0 41 0;
#X connect 47 0 46 0;
#X connect 48 0 50 0;
#X connect 49 0 42 0;
#X connect 50 0 51 0;
#X connect 51 0 49 0;
#X connect 53 0 54 0;
#X connect 54 0 55 0;
#X connect 56 1 57 0;
#X connect 57 0 58 0;
#X connect 58 0 59 0;
#X connect 59 0 26 0;
