#N canvas 511 310 724 359 10;
#X declare -path ./SyncJams/pure-data/;
#X declare -path ./pd-acid-core/;
#X declare -path .;
#X declare -path ./pd-acid-core/common/;
#X declare -path ./pd-acid-core/rjlib/rj;
#X declare -path ./pd-acid-core/blockhead/;
#X declare -path .;
#X declare -path ./common/;
#X declare -path ./blockhead/;
#X declare -path ./rjlib/rj;
#X obj 24 321 dac~;
#X obj 355 4 loadbang;
#X msg 355 26 \; pd dsp 1 \;;
#X obj 130 325 writesf~ 2;
#X obj 130 236 r record;
#X msg 139 300 stop;
#X obj 139 279 r stop;
#X obj 6 6 loadbang;
#X obj 523 317 s acid/tick;
#N canvas 0 50 450 300 seeding 0;
#X obj 98 60 timer;
#X obj 125 38 r newseed;
#X obj 98 81 s SEED;
#X connect 0 0 2 0;
#X connect 1 0 0 1;
#X restore 139 7 pd seeding;
#N canvas 0 50 450 300 swing 0;
#X obj 16 75 sel 0;
#X msg 49 98 0;
#X msg 16 36 bang;
#X msg 15 98 30;
#X obj 5 147 s acid/swing;
#X obj 5 168 s drums/swing;
#X obj 117 15 r acid/makenew;
#X obj 16 15 r drums/makenew;
#X obj 16 56 seededrandom 10;
#X connect 0 0 3 0;
#X connect 0 1 1 0;
#X connect 1 0 4 0;
#X connect 1 0 5 0;
#X connect 2 0 8 0;
#X connect 3 0 4 0;
#X connect 3 0 5 0;
#X connect 6 0 2 0;
#X connect 7 0 2 0;
#X connect 8 0 0 0;
#X restore 143 29 pd swing;
#X obj 217 4 r wordbutton-new_acid;
#X msg 6 28 \; acid/acid-volume 64 \; acid/rez 5 \; acid/cutoff 64
\;;
#N canvas 6 51 450 300 delay 0;
#X obj 14 11 inlet~;
#X obj 14 272 outlet~;
#X obj 41 171 +~;
#X obj 76 143 *~ 0;
#X obj 76 10 loadbang;
#X msg 76 31 0;
#X obj 41 241 delwrite~ \$0/del 857.143;
#X obj 97 119 r delay/feedback;
#X obj 219 30 mtof;
#X obj 219 8 r delay/length;
#X obj 76 82 vd~ \$0/del;
#X connect 0 0 2 0;
#X connect 2 0 1 0;
#X connect 2 0 6 0;
#X connect 3 0 2 1;
#X connect 4 0 5 0;
#X connect 5 0 10 0;
#X connect 7 0 3 1;
#X connect 8 0 10 0;
#X connect 9 0 8 0;
#X connect 10 0 3 0;
#X restore 7 191 pd delay;
#X floatatom 217 90 10 0 0 0 - - -;
#X obj 498 5 declare -path ./SyncJams/pure-data/;
#X obj 534 28 declare -path ./pd-acid-core/;
#X obj 619 50 declare -path .;
#X obj 497 73 declare -path ./pd-acid-core/common/;
#X obj 490 96 declare -path ./pd-acid-core/rjlib/rj;
#X obj 478 118 declare -path ./pd-acid-core/blockhead/;
#X obj 19 226 e_autocompress;
#X obj 62 280 e_tanh;
#X obj 8 280 e_tanh;
#X msg 217 108 \; acid/seed \$1 \; acid/makenew bang \;;
#X obj 7 89 acid-core acid;
#X obj 7 129 catch~ acid/out;
#X obj 523 275 int;
#X obj 523 297 change;
#X obj 372 225 r bpm;
#X obj 623 274 s bpm_r;
#X obj 523 209 syncjams \$0/syncjam;
#X msg 372 249 set-state /BPM \$1;
#X msg 130 257 open recording.wav \, start;
#X obj 372 271 s \$0/syncjam;
#X obj 7 170 e_foldover;
#X obj 64 149 r distortion;
#X obj 523 231 route sub-tick state node-id;
#X obj 578 253 route -1;
#X obj 19 248 *~ 0.1;
#X obj 217 68 r ACID-SEED;
#X obj 523 253 / 6;
#X obj 357 197 s acid/globaloctave;
#X obj 357 177 - 2;
#X obj 357 153 r acid/set-octave;
#X obj 217 46 s ACID-SEED/r;
#X obj 217 24 random 65536;
#X obj 163 159 r acid/notes;
#X obj 243 159 r acid/rootnote;
#X obj 243 181 print rootnote;
#X obj 163 181 print notes;
#N canvas 667 1308 450 452 magic 0;
#X obj 116 366 u_magic-freq;
#X obj 116 282 r delay/tune;
#X obj 131 310 r bpm;
#X obj 170 310 r bpm_r;
#X msg 131 340 140;
#X obj 185 390 s delay/length;
#X obj 305 120 list;
#X obj 258 312 list prepend notes;
#X obj 326 97 list split 1;
#X obj 305 142 list split 1;
#X obj 395 142 t l;
#X obj 279 263 list append;
#X obj 355 263 t l;
#X obj 299 51 t b f b;
#X obj 258 289 list;
#X obj 258 334 list trim;
#X obj 272 31 t b f;
#X obj 307 365 print NOTEs;
#X obj 272 9 r acid/rootnote;
#X obj 326 75 r acid/notes;
#X obj 305 192 + 0;
#X obj 305 164 sel 0;
#X obj 305 214 mod 12;
#X obj 305 236 + 52;
#X connect 0 1 5 0;
#X connect 1 0 0 0;
#X connect 2 0 4 0;
#X connect 3 0 4 0;
#X connect 4 0 0 0;
#X connect 6 0 9 0;
#X connect 7 0 15 0;
#X connect 7 0 17 0;
#X connect 8 1 6 1;
#X connect 9 0 21 0;
#X connect 9 1 10 0;
#X connect 10 0 9 0;
#X connect 11 0 12 0;
#X connect 11 0 14 1;
#X connect 12 0 11 1;
#X connect 13 0 6 0;
#X connect 13 1 20 1;
#X connect 13 2 11 1;
#X connect 14 0 7 0;
#X connect 15 0 0 0;
#X connect 16 0 14 0;
#X connect 16 1 13 0;
#X connect 18 0 16 0;
#X connect 19 0 8 0;
#X connect 20 0 22 0;
#X connect 21 1 20 0;
#X connect 22 0 23 0;
#X connect 23 0 11 0;
#X restore 63 191 pd magic;
#X floatatom 7 108 5 0 0 0 - - -;
#N canvas 1138 158 450 300 table-match 0;
#X obj 27 38 u_tablemap 16 \$1/slide/r/%d \$1/slide/%d acid/slide acid/slide
;
#X obj 27 73 u_tablemap 16 \$1/accent/r/%d \$1/accent/%d acid/octave
acid/octave;
#X obj 27 109 u_tablemap 16 \$1/note/r/%d \$1/note/%d/idx acid/sequence
acid/sequence;
#X obj 27 144 u_tablemap 16 \$1/octave/r/%d \$1/octave/%d/idx acid/octave
acid/octave;
#X restore 300 310 pd table-match;
#X obj 226 227 s acid/wave;
#X obj 226 205 r acid/wave/name/idx;
#X connect 1 0 2 0;
#X connect 4 0 33 0;
#X connect 5 0 3 0;
#X connect 6 0 5 0;
#X connect 7 0 12 0;
#X connect 11 0 46 0;
#X connect 13 0 21 0;
#X connect 13 0 23 0;
#X connect 13 0 22 0;
#X connect 14 0 24 0;
#X connect 21 0 39 0;
#X connect 22 0 0 1;
#X connect 22 0 3 1;
#X connect 23 0 0 0;
#X connect 23 0 3 0;
#X connect 25 0 52 0;
#X connect 26 0 35 0;
#X connect 27 0 28 0;
#X connect 28 0 8 0;
#X connect 29 0 32 0;
#X connect 31 0 37 0;
#X connect 32 0 34 0;
#X connect 33 0 3 0;
#X connect 35 0 13 0;
#X connect 36 0 35 1;
#X connect 37 0 41 0;
#X connect 37 1 38 0;
#X connect 37 2 38 1;
#X connect 38 1 30 0;
#X connect 39 0 23 0;
#X connect 39 0 22 0;
#X connect 40 0 14 0;
#X connect 41 0 27 0;
#X connect 43 0 42 0;
#X connect 44 0 43 0;
#X connect 46 0 45 0;
#X connect 47 0 50 0;
#X connect 48 0 49 0;
#X connect 55 0 54 0;
